# xmcd
# 
# Track frame offsets:
#     150
#     15731
#     32946
#     47260
#     60884
#     84998
#     107066
#     125888
#     145584
#     155698
#     179011
# 
# Disc length: 2741
# 
# Revision: 2
# Processed by: cddbd v1.5.2PL0 Copyright (c) Steve Scherf et al.
# Submitted via: fre:ac v1.0.17
# 
DISCID=8c0ab30b
DTITLE=NewWorldSon - Salvation Station
DYEAR=2007
DGENRE=Modern Worship
TTITLE0=Salvation Station
TTITLE1=Working man
TTITLE2=Gimme
TTITLE3=Empty heart
TTITLE4=Sweet Holy Spirit
TTITLE5=Babylon is gonna fall
TTITLE6=Down from the mountian
TTITLE7=Borderline
TTITLE8=Citybus love song
TTITLE9=Waitin' till the rapture come
TTITLE10=Pledge of allegience
EXTD=
EXTT0=
EXTT1=
EXTT2=
EXTT3=
EXTT4=
EXTT5=
EXTT6=
EXTT7=
EXTT8=
EXTT9=
EXTT10=
PLAYORDER=
